<?xml version="1.0" standalone="no"?><!DOCTYPE svg PUBLIC "-//W3C//DTD SVG 1.1//EN" "http://www.w3.org/Graphics/SVG/1.1/DTD/svg11.dtd"><svg t="1733883104851" class="icon" viewBox="0 0 1024 1024" version="1.1" xmlns="http://www.w3.org/2000/svg" p-id="15790" xmlns:xlink="http://www.w3.org/1999/xlink" width="200" height="200"><path d="M512 1024C229.216 1024 0 794.784 0 512S229.216 0 512 0s512 229.216 512 512-229.216 512-512 512z m-7.168-499.072c77.28 0 140.256-60.064 140.256-134.4 0-74.368-62.976-134.4-140.256-134.4-77.28-2.88-140.224 57.152-140.224 134.4 0 74.336 62.944 134.4 140.224 134.4z m-54.368 25.728c-97.312 0-168.864 65.76-168.864 160.16v11.424C281.6 768 358.88 768 459.04 768h105.92c94.432 0 177.44 0 177.44-48.64v-11.424c0-94.368-71.552-160.128-168.864-160.128l-123.072 2.848z" fill="#4A90E2" p-id="15791"></path></svg>